<svg xmlns="http://www.w3.org/2000/svg" version="1.1" xmlns:xlink="http://www.w3.org/1999/xlink" xmlns:svgjs="http://svgjs.dev/svgjs" width="2000" height="469" viewBox="0 0 2000 469"><g transform="matrix(1,0,0,1,-1.2121212121212466,0.8532259480952575)"><svg viewBox="0 0 396 93" data-background-color="#ffffff" preserveAspectRatio="xMidYMid meet" height="469" width="2000" xmlns="http://www.w3.org/2000/svg" xmlns:xlink="http://www.w3.org/1999/xlink"><g id="tight-bounds" transform="matrix(1,0,0,1,0.2400000000000091,-0.16918979354554153)"><svg viewBox="0 0 395.52 93.33837958709108" height="93.33837958709108" width="395.52"><g><svg viewBox="0 0 589.2556521050519 139.05786744038284" height="93.33837958709108" width="395.52"><g><rect width="5.1680268140980505" height="101.12384716178343" x="175.03875928546162" y="18.967010139299703" fill="#0074d9" opacity="1" stroke-width="0" stroke="transparent" fill-opacity="1" class="rect-qz-0" data-fill-palette-color="secondary" rx="1%" id="qz-0" data-palette-color="#0074d9"></rect></g><g transform="matrix(1,0,0,1,193.73565210505197,19.218561997911095)"><svg viewBox="0 0 395.5199999999999 100.62074344456065" height="100.62074344456065" width="395.5199999999999"><g id="textblocktransform"><svg viewBox="0 0 395.5199999999999 100.62074344456065" height="100.62074344456065" width="395.5199999999999" id="textblock"><g><svg viewBox="0 0 395.5199999999999 57.307248536455546" height="57.307248536455546" width="395.5199999999999"><g transform="matrix(1,0,0,1,0,0)"><svg width="395.5199999999999" viewBox="2.65 -40.8 375.77000000000004 54.449999999999996" height="57.307248536455546" data-palette-color="#0074d9"><path d="M34.8-7.4L34.8-7.4Q35.65-6.85 36.1-5.5L36.1-5.5Q29.15 1 22 1L22 1Q17.1 1 13.45-0.78 9.8-2.55 7.4-5.48 5-8.4 3.83-12.13 2.65-15.85 2.65-19.75L2.65-19.75Q2.65-23.7 4-27.48 5.35-31.25 7.95-34.23 10.55-37.2 14.38-39 18.2-40.8 23.1-40.8L23.1-40.8Q29.55-40.8 35.1-37.8L35.1-37.8 35.1-28.2Q34.2-28.05 33.5-28.05L33.5-28.05Q32.75-28.05 32.25-28.2L32.25-28.2 30.65-36.55Q27.6-38.55 22.5-38.55L22.5-38.55Q19.35-38.55 16.82-37.13 14.3-35.7 12.53-33.27 10.75-30.85 9.8-27.58 8.85-24.3 8.85-20.6L8.85-20.6Q8.85-16.65 9.78-13.3 10.7-9.95 12.4-7.5 14.1-5.05 16.53-3.68 18.95-2.3 21.95-2.3L21.95-2.3Q25.55-2.3 28.9-3.7 32.25-5.1 34.8-7.4ZM48.7-26.7L48.7-26.7 48.6-21.55Q49.85-23.85 52.07-25.78 54.3-27.7 56.3-27.7L56.3-27.7Q57.85-27.7 59.05-27.35L59.05-27.35Q59.45-26.7 59.45-25.65L59.45-25.65Q59.45-24 58.75-22.35L58.75-22.35Q56.95-22.85 55.3-22.85L55.3-22.85Q51.2-22.85 48.55-18.85L48.55-18.85 48.45-10.1 48.45-2.55 54-1.8Q54.2-1 54 0.2L54 0.2Q50.85 0.05 46.8 0.05L46.8 0.05Q43.75 0.05 39.55 0.15L39.55 0.15Q39.25-0.8 39.55-1.8L39.55-1.8 43.5-2.35Q43.7-5.1 43.7-8.7L43.7-8.7 43.7-22.4Q43.7-23.4 43.55-24.25L43.55-24.25 39.6-24.75Q39.4-25.5 39.6-26.65L39.6-26.65Q43.05-26.9 48.2-27.7L48.2-27.7Q48.65-27.2 48.7-26.7ZM70.15 7.4L70.15 7.4 73.35-0.15 63.65-24.05 59.75-24.85Q59.5-25.85 59.75-26.85L59.75-26.85Q62.5-26.65 66.45-26.65L66.45-26.65Q70-26.65 73.2-26.8L73.2-26.8Q73.5-25.8 73.2-24.85L73.2-24.85 68.9-24.15 73.65-12.9Q74.65-10.45 75.75-6.05L75.75-6.05 75.85-6.05Q76.7-9.05 78.2-12.65L78.2-12.65 82.55-24.3 78.65-24.85Q78.45-25.65 78.65-26.85L78.65-26.85Q81.4-26.65 84-26.65L84-26.65Q86.2-26.65 89.45-26.8L89.45-26.8Q89.75-25.8 89.45-24.85L89.45-24.85 85.5-24.3 72.3 8Q71.25 10.5 69.95 11.75 68.65 13 66.5 13L66.5 13Q64.8 13 63.87 12.58 62.95 12.15 62 10.95L62 10.95Q62.3 8.2 64.85 6.55L64.85 6.55Q66.9 8.85 68.35 8.85L68.35 8.85Q69.6 8.85 70.15 7.4ZM106.24-1.7L106.24-1.7Q109.54-1.7 111.47-4.9 113.39-8.1 113.39-14.55L113.39-14.55Q113.39-19.5 111.57-22.1 109.74-24.7 106.74-24.7L106.74-24.7Q102.34-24.7 99.14-20.45L99.14-20.45 99.14-4.9Q101.94-1.7 106.24-1.7ZM94.39 4.75L94.39-19.55Q94.39-22.9 94.24-24.25L94.24-24.25 90.29-24.75Q90.14-25.55 90.29-26.65L90.29-26.65Q93.79-26.9 98.89-27.7L98.89-27.7Q99.34-27.25 99.39-26.7L99.39-26.7Q99.14-24.95 99.14-23L99.14-23Q103.19-27.7 108.44-27.7L108.44-27.7Q112.84-27.7 115.77-24.05 118.69-20.4 118.69-14.4L118.69-14.4Q118.69-7.45 114.87-3.23 111.04 1 105.84 1L105.84 1Q102.19 1 99.14-1.35L99.14-1.35 99.14 10.9 104.19 11.65Q104.39 12.45 104.19 13.65L104.19 13.65Q101.04 13.5 97.24 13.5L97.24 13.5Q94.44 13.5 90.24 13.6L90.24 13.6Q89.94 12.6 90.24 11.65L90.24 11.65 94.19 11.1Q94.39 8.35 94.39 4.75L94.39 4.75ZM130.39-32.7L130.39-32.7 130.39-25.55 137.44-25.55Q137.54-24.95 137.54-24.65L137.54-24.65Q137.54-24.2 137.44-23.6L137.44-23.6 130.39-22.55 130.39-8.8Q130.39-5.1 131.07-3.58 131.74-2.05 133.19-2.05L133.19-2.05Q134.49-2.05 137.24-3.1L137.24-3.1Q137.74-2.65 137.94-1.4L137.94-1.4Q136.44-0.5 135.67-0.08 134.89 0.35 133.72 0.68 132.54 1 131.24 1L131.24 1Q128.74 1 127.17-0.93 125.59-2.85 125.59-6.8L125.59-6.8 125.59-23.15 122.09-23.6Q121.99-24.1 121.99-24.45L121.99-24.45Q121.99-24.85 122.09-25.55L122.09-25.55Q123.49-25.8 124.52-26.43 125.54-27.05 126.24-28.18 126.94-29.3 127.32-30.18 127.69-31.05 128.24-32.7L128.24-32.7Q128.69-32.85 129.34-32.85L129.34-32.85Q129.94-32.85 130.39-32.7ZM140.84-13.3L140.84-13.3Q140.84-16.3 141.71-18.93 142.59-21.55 144.24-23.5 145.89-25.45 148.21-26.58 150.54-27.7 153.44-27.7L153.44-27.7Q156.29-27.7 158.64-26.58 160.99-25.45 162.66-23.5 164.34-21.55 165.24-18.93 166.14-16.3 166.14-13.3L166.14-13.3Q166.14-10.2 165.21-7.6 164.29-5 162.61-3.08 160.94-1.15 158.59-0.08 156.24 1 153.44 1L153.44 1Q150.49 1 148.16-0.05 145.84-1.1 144.21-3 142.59-4.9 141.71-7.53 140.84-10.15 140.84-13.3ZM148.14-22.5L148.14-22.5Q145.99-19.45 145.99-13.3L145.99-13.3Q145.99-10.25 146.56-7.95 147.14-5.65 148.14-4.13 149.14-2.6 150.49-1.85 151.84-1.1 153.44-1.1L153.44-1.1Q154.99-1.1 156.39-1.85 157.79-2.6 158.79-4.13 159.79-5.65 160.39-7.95 160.99-10.25 160.99-13.3L160.99-13.3Q160.99-16.35 160.39-18.68 159.79-21 158.76-22.53 157.74-24.05 156.36-24.83 154.99-25.6 153.44-25.6L153.44-25.6Q150.34-25.6 148.14-22.5ZM202.74 0.9L202.74 0.9 201.44-3.2Q195.64 1 190.24 1L190.24 1Q185.34 1 181.69-0.78 178.04-2.55 175.64-5.48 173.24-8.4 172.06-12.13 170.89-15.85 170.89-19.75L170.89-19.75Q170.89-23.7 172.26-27.48 173.64-31.25 176.31-34.2 178.99-37.15 182.84-38.98 186.69-40.8 191.64-40.8L191.64-40.8Q198.54-40.8 204.34-37.8L204.34-37.8 204.34-28.2Q203.44-28.05 202.74-28.05L202.74-28.05Q201.99-28.05 201.49-28.2L201.49-28.2 199.89-36.55Q196.69-38.55 191.04-38.55L191.04-38.55Q187.89-38.55 185.34-37.13 182.79-35.7 180.94-33.27 179.09-30.85 178.09-27.58 177.09-24.3 177.09-20.6L177.09-20.6Q177.09-16.65 178.01-13.3 178.94-9.95 180.64-7.5 182.34-5.05 184.76-3.68 187.19-2.3 190.19-2.3L190.19-2.3Q195.04-2.3 199.74-4.95L199.74-4.95 199.74-15.6 195.69-16.1Q195.59-16.35 195.59-16.9L195.59-16.9Q195.59-17.15 195.59-17.4 195.59-17.65 195.69-17.95L195.69-17.95Q197.09-17.85 198.76-17.8 200.44-17.75 202.54-17.75L202.54-17.75Q206.19-17.75 209.44-17.9L209.44-17.9Q209.59-17.45 209.59-17L209.59-17Q209.59-16.55 209.44-16.1L209.44-16.1 205.29-15.5Q205.19-14.55 205.14-13.1 205.09-11.65 205.09-9.65L205.09-9.65 205.09-4.6 204.59 0.9Q204.39 1 204.19 1 203.99 1 203.74 1L203.74 1Q203.49 1 203.24 1 202.99 1 202.74 0.9ZM233.63-14.1L233.63-14.1 217.93-14.1Q217.48-1.35 225.58-1.35L225.58-1.35Q229.03-1.35 232.63-4.4L232.63-4.4Q233.38-3.95 233.78-2.85L233.78-2.85Q230.33 1 225.03 1L225.03 1Q212.83 1 212.83-13.35L212.83-13.35Q212.83-20.15 216.43-23.93 220.03-27.7 224.83-27.7L224.83-27.7Q230.08-27.7 232.38-24.05 234.68-20.4 234.68-14.55L234.68-14.55Q234.18-14.15 233.63-14.1ZM224.73-25.7L224.73-25.7Q222.13-25.7 220.31-23 218.48-20.3 218.08-16.1L218.08-16.1 224.28-16.1Q227.98-16.1 229.58-16.55L229.58-16.55Q229.58-20.65 228.33-23.18 227.08-25.7 224.73-25.7ZM246.33-32.7L246.33-32.7 246.33-25.55 253.38-25.55Q253.48-24.95 253.48-24.65L253.48-24.65Q253.48-24.2 253.38-23.6L253.38-23.6 246.33-22.55 246.33-8.8Q246.33-5.1 247.01-3.58 247.68-2.05 249.13-2.05L249.13-2.05Q250.43-2.05 253.18-3.1L253.18-3.1Q253.68-2.65 253.88-1.4L253.88-1.4Q252.38-0.5 251.61-0.08 250.83 0.35 249.66 0.68 248.48 1 247.18 1L247.18 1Q244.68 1 243.11-0.93 241.53-2.85 241.53-6.8L241.53-6.8 241.53-23.15 238.03-23.6Q237.93-24.1 237.93-24.45L237.93-24.45Q237.93-24.85 238.03-25.55L238.03-25.55Q239.43-25.8 240.46-26.43 241.48-27.05 242.18-28.18 242.88-29.3 243.26-30.18 243.63-31.05 244.18-32.7L244.18-32.7Q244.63-32.85 245.28-32.85L245.28-32.85Q245.88-32.85 246.33-32.7ZM261.28-8.1L261.28-8.1 261.28-37.6 257.23-38.15Q256.93-39.05 257.23-39.95L257.23-39.95 264.08-39.8 284.28-39.8 284.33-28.2Q283.23-28 282.48-28.2L282.48-28.2 280.13-37.25 266.63-37.25 266.63-22.25 274.63-22.4 275.78-27.3Q276.53-27.5 277.63-27.3L277.63-27.3Q277.43-24.5 277.43-20.85L277.43-20.85Q277.43-17.5 277.58-14.35L277.58-14.35Q276.68-14.05 275.78-14.35L275.78-14.35 274.68-19.55 266.63-19.7 266.63-2.55 281.63-2.55 283.98-11.6Q284.73-11.8 285.83-11.6L285.83-11.6 285.78 0 264.08 0 256.93 0.15Q256.63-0.75 256.93-1.65L256.93-1.65 261.08-2.2Q261.28-4.75 261.28-8.1ZM318.13-24.85L314.38-24.3 306.03-13.95 314.73-2.65 318.93-1.85Q319.13-1.05 318.93 0.15L318.93 0.15Q315.78 0 312.28 0L312.28 0Q309.78 0 305.58 0.1L305.58 0.1Q305.28-0.9 305.58-1.85L305.58-1.85 309.23-2.4 302.93-10.65 296.33-2.25 299.73-1.85Q299.93-1.05 299.73 0.15L299.73 0.15Q296.58 0 294.58 0L294.58 0Q293.58 0 289.38 0.1L289.38 0.1Q289.08-0.9 289.38-1.85L289.38-1.85 293.13-2.4 301.38-12.65 292.53-24.25 289.48-24.95Q289.28-25.75 289.48-26.9L289.48-26.9Q292.23-26.7 295.58-26.7L295.58-26.7Q298.48-26.7 301.73-26.85L301.73-26.85Q302.03-25.95 301.73-24.95L301.73-24.95 298.13-24.3 304.63-15.8 311.43-24.45 308.03-24.85Q307.83-25.65 308.03-26.85L308.03-26.85Q310.78-26.65 313.03-26.65L313.03-26.65Q314.88-26.65 318.13-26.8L318.13-26.8Q318.43-25.8 318.13-24.85L318.13-24.85ZM336.32-1.7L336.32-1.7Q339.62-1.7 341.55-4.9 343.47-8.1 343.47-14.55L343.47-14.55Q343.47-19.5 341.65-22.1 339.82-24.7 336.82-24.7L336.82-24.7Q332.42-24.7 329.22-20.45L329.22-20.45 329.22-4.9Q332.02-1.7 336.32-1.7ZM324.47 4.75L324.47-19.55Q324.47-22.9 324.32-24.25L324.32-24.25 320.37-24.75Q320.22-25.55 320.37-26.65L320.37-26.65Q323.87-26.9 328.97-27.7L328.97-27.7Q329.42-27.25 329.47-26.7L329.47-26.7Q329.22-24.95 329.22-23L329.22-23Q333.27-27.7 338.52-27.7L338.52-27.7Q342.92-27.7 345.85-24.05 348.77-20.4 348.77-14.4L348.77-14.4Q348.77-7.45 344.95-3.23 341.12 1 335.92 1L335.92 1Q332.27 1 329.22-1.35L329.22-1.35 329.22 10.9 334.27 11.65Q334.47 12.45 334.27 13.65L334.27 13.65Q331.12 13.5 327.32 13.5L327.32 13.5Q324.52 13.5 320.32 13.6L320.32 13.6Q320.02 12.6 320.32 11.65L320.32 11.65 324.27 11.1Q324.47 8.35 324.47 4.75L324.47 4.75ZM353.12-13.3L353.12-13.3Q353.12-16.3 354-18.93 354.87-21.55 356.52-23.5 358.17-25.45 360.5-26.58 362.82-27.7 365.72-27.7L365.72-27.7Q368.57-27.7 370.92-26.58 373.27-25.45 374.95-23.5 376.62-21.55 377.52-18.93 378.42-16.3 378.42-13.3L378.42-13.3Q378.42-10.2 377.5-7.6 376.57-5 374.9-3.08 373.22-1.15 370.87-0.08 368.52 1 365.72 1L365.72 1Q362.77 1 360.45-0.05 358.12-1.1 356.5-3 354.87-4.9 354-7.53 353.12-10.15 353.12-13.3ZM360.42-22.5L360.42-22.5Q358.27-19.45 358.27-13.3L358.27-13.3Q358.27-10.25 358.85-7.95 359.42-5.65 360.42-4.13 361.42-2.6 362.77-1.85 364.12-1.1 365.72-1.1L365.72-1.1Q367.27-1.1 368.67-1.85 370.07-2.6 371.07-4.13 372.07-5.65 372.67-7.95 373.27-10.25 373.27-13.3L373.27-13.3Q373.27-16.35 372.67-18.68 372.07-21 371.05-22.53 370.02-24.05 368.65-24.83 367.27-25.6 365.72-25.6L365.72-25.6Q362.62-25.6 360.42-22.5Z" opacity="1" transform="matrix(1,0,0,1,0,0)" fill="#0074d9" class="wordmark-text-0" data-fill-palette-color="primary" id="text-0"></path></svg></g></svg></g><g transform="matrix(1,0,0,1,0,70.83611454194782)"><svg viewBox="0 0 232.20979199999996 29.784628902612823" height="29.784628902612823" width="232.20979199999996"><g transform="matrix(1,0,0,1,0,0)"><svg width="232.20979199999996" viewBox="2.5 -37 378.86 48.6" height="29.784628902612823" data-palette-color="#0074d9"><path d="M17.95 0.6L17.95 0.6Q13.4 0.6 9.9-1.58 6.4-3.75 4.45-7.78 2.5-11.8 2.5-17.35L2.5-17.35Q2.5-22.7 4.48-26.83 6.45-30.95 10.08-33.27 13.7-35.6 18.55-35.6L18.55-35.6Q21.05-35.6 23.1-35.13 25.15-34.65 26.95-33.8L26.95-33.8 25.5-29.8Q23.95-30.55 22.33-31 20.7-31.45 18.5-31.45L18.5-31.45Q15.3-31.45 12.78-29.8 10.25-28.15 8.8-25.05 7.35-21.95 7.35-17.55L7.35-17.55Q7.35-13.35 8.78-10.2 10.2-7.05 12.73-5.3 15.25-3.55 18.5-3.55L18.5-3.55Q20.95-3.55 22.75-4.15 24.55-4.75 26.25-5.7L26.25-5.7 27.7-1.75Q25.85-0.75 23.48-0.08 21.1 0.6 17.95 0.6ZM38.2 0L33.7 0 33.7-26 38.05-26 38.05-20.35Q38.7-22 39.8-23.43 40.9-24.85 42.55-25.73 44.2-26.6 46.4-26.6L46.4-26.6Q47.15-26.6 47.9-26.53 48.65-26.45 49.15-26.3L49.15-26.3 47.8-21.65Q46.85-22.05 45.55-22.05L45.55-22.05Q43.7-22.05 42.02-21 40.35-19.95 39.27-17.75 38.2-15.55 38.2-12.15L38.2-12.15 38.2 0ZM54.3 11.6L54.3 11.6Q52.8 11.6 51.67 11.3 50.55 11 49.9 10.6L49.9 10.6 50.9 6.85Q51.5 7.2 52.4 7.45 53.3 7.7 54.4 7.7L54.4 7.7Q56.5 7.7 58.15 6.35 59.8 5 61.3 1.05L61.3 1.05 62.45-1.95 60.05-1.95 49.9-24.8 53.9-26.6 63.6-4.95 71.15-26.4 75.3-24.8 65.75 1.3Q64.3 5.3 62.6 7.55 60.9 9.8 58.85 10.7 56.8 11.6 54.3 11.6ZM85.24 11L80.74 11 80.74-19.35Q80.74-21.05 79.92-21.78 79.09-22.5 77.79-22.5L77.79-22.5 78.74-26Q83.34-26 84.49-22.35L84.49-22.35Q84.99-23.1 86.12-24.1 87.24-25.1 88.92-25.85 90.59-26.6 92.74-26.6L92.74-26.6Q95.74-26.6 98.37-25.03 100.99-23.45 102.59-20.48 104.19-17.5 104.19-13.25L104.19-13.25Q104.19-9.1 102.59-5.98 100.99-2.85 98.42-1.13 95.84 0.6 92.84 0.6L92.84 0.6Q90.54 0.6 88.54-0.33 86.54-1.25 85.24-2.45L85.24-2.45 85.24 11ZM91.94-3.4L91.94-3.4Q95.34-3.4 97.47-6.08 99.59-8.75 99.59-13.1L99.59-13.1Q99.59-16.1 98.52-18.25 97.44-20.4 95.67-21.55 93.89-22.7 91.74-22.7L91.74-22.7Q89.59-22.7 87.87-21.63 86.14-20.55 85.24-19.3L85.24-19.3 85.24-6.5Q86.54-5.15 88.24-4.28 89.94-3.4 91.94-3.4ZM119.54 0.6L119.54 0.6Q115.79 0.6 113.62-1.88 111.44-4.35 111.44-8.95L111.44-8.95 111.44-21.15 106.94-21.15 106.94-25.05 111.54-25.05 112.49-33.25 115.94-33.25 115.94-25.05 123.14-25.05 123.14-21.15 115.94-21.15 115.94-8.6Q115.94-5.7 117.17-4.55 118.39-3.4 120.09-3.4L120.09-3.4Q121.34-3.4 122.47-3.8 123.59-4.2 124.54-4.75L124.54-4.75 125.79-1.15Q124.79-0.55 123.09 0.03 121.39 0.6 119.54 0.6ZM140.24 0.6L140.24 0.6Q136.54 0.6 133.59-1.13 130.64-2.85 128.96-5.93 127.29-9 127.29-13L127.29-13Q127.29-17.2 128.99-20.25 130.69-23.3 133.64-24.95 136.59-26.6 140.24-26.6L140.24-26.6Q143.89-26.6 146.81-24.95 149.74-23.3 151.46-20.28 153.19-17.25 153.19-13.1L153.19-13.1Q153.19-8.95 151.49-5.88 149.79-2.8 146.86-1.1 143.94 0.6 140.24 0.6ZM140.24-3.4L140.24-3.4Q144.19-3.4 146.39-6.08 148.59-8.75 148.59-13L148.59-13Q148.59-15.6 147.49-17.78 146.39-19.95 144.51-21.28 142.64-22.6 140.24-22.6L140.24-22.6Q136.29-22.6 134.09-20 131.89-17.4 131.89-13.1L131.89-13.1Q131.89-10.5 132.99-8.28 134.09-6.05 135.96-4.73 137.84-3.4 140.24-3.4ZM179.43 0L174.68 0 174.68-35 179.43-35 179.43 0ZM194.93 0.6L194.93 0.6Q191.98 0.6 189.61-0.15 187.23-0.9 185.68-2.1L185.68-2.1 187.58-5.85Q188.88-4.75 190.86-4.03 192.83-3.3 195.08-3.3L195.08-3.3Q197.88-3.3 199.31-4.23 200.73-5.15 200.73-6.6L200.73-6.6Q200.73-7.65 200.21-8.45 199.68-9.25 198.28-10.03 196.88-10.8 194.23-11.7L194.23-11.7Q190.58-12.95 188.76-14.68 186.93-16.4 186.93-19.45L186.93-19.45Q186.93-22.45 189.56-24.53 192.18-26.6 196.83-26.6L196.83-26.6Q199.33-26.6 201.28-26.08 203.23-25.55 204.78-24.75L204.78-24.75 203.53-21.05Q202.18-21.85 200.46-22.35 198.73-22.85 196.63-22.85L196.63-22.85Q194.03-22.85 192.68-21.8 191.33-20.75 191.33-19.5L191.33-19.5Q191.33-18.3 192.38-17.45 193.43-16.6 196.48-15.6L196.48-15.6Q201.43-13.95 203.38-11.95 205.33-9.95 205.33-6.95L205.33-6.95Q205.33-3.45 202.51-1.43 199.68 0.6 194.93 0.6ZM235.53 0.6L235.53 0.6Q231.88 0.6 228.88-0.38 225.88-1.35 223.83-2.95L223.83-2.95 226.23-6.95Q228.03-5.45 230.28-4.5 232.53-3.55 235.53-3.55L235.53-3.55Q239.13-3.55 241.23-5.05 243.33-6.55 243.33-9.1L243.33-9.1Q243.33-10.55 242.73-11.68 242.13-12.8 240.4-13.88 238.68-14.95 235.33-16.2L235.33-16.2Q231.73-17.6 229.58-19.03 227.43-20.45 226.5-22.28 225.58-24.1 225.58-26.6L225.58-26.6Q225.58-29.1 226.95-31.13 228.33-33.15 231-34.38 233.68-35.6 237.48-35.6L237.48-35.6Q240.58-35.6 243.05-34.98 245.53-34.35 247.88-33.2L247.88-33.2 246.13-29.15Q244.43-30.15 242.15-30.83 239.88-31.5 237.38-31.5L237.38-31.5Q234.08-31.5 232.18-30.2 230.28-28.9 230.28-26.85L230.28-26.85Q230.28-25.55 230.83-24.55 231.38-23.55 233-22.6 234.63-21.65 237.88-20.45L237.88-20.45Q241.78-19 244.05-17.4 246.33-15.8 247.28-13.93 248.23-12.05 248.23-9.65L248.23-9.65Q248.23-6.4 246.6-4.1 244.98-1.8 242.1-0.6 239.23 0.6 235.53 0.6ZM259.22 0L254.72 0 254.72-26 259.22-26 259.22 0ZM256.97-30.45L256.97-30.45Q255.67-30.45 254.75-31.4 253.82-32.35 253.82-33.6L253.82-33.6Q253.82-35.05 254.67-35.9 255.52-36.75 256.97-36.75L256.97-36.75Q258.27-36.75 259.2-35.83 260.12-34.9 260.12-33.6L260.12-33.6Q260.12-32.2 259.27-31.33 258.42-30.45 256.97-30.45ZM271.72 0L267.22 0 267.22-26 271.57-26 271.57-21.65Q272.97-23.75 275.12-25.18 277.27-26.6 280.02-26.6L280.02-26.6Q283.12-26.6 285.1-25.1 287.07-23.6 287.87-21.1L287.87-21.1Q289.42-23.4 291.55-25 293.67-26.6 296.82-26.6L296.82-26.6Q301.07-26.6 303.15-23.93 305.22-21.25 305.22-16.95L305.22-16.95 305.22 0 300.72 0 300.72-16.6Q300.72-19.3 299.47-20.98 298.22-22.65 296.02-22.65L296.02-22.65Q293.77-22.65 291.85-20.98 289.92-19.3 288.47-17.05L288.47-17.05 288.47 0 283.97 0 283.97-16.6Q283.97-19.3 282.72-20.98 281.47-22.65 279.27-22.65L279.27-22.65Q277.07-22.65 275.12-21.03 273.17-19.4 271.72-17.2L271.72-17.2 271.72 0ZM318.42 11L313.92 11 313.92-19.35Q313.92-21.05 313.09-21.78 312.27-22.5 310.97-22.5L310.97-22.5 311.92-26Q316.52-26 317.67-22.35L317.67-22.35Q318.17-23.1 319.29-24.1 320.42-25.1 322.09-25.85 323.77-26.6 325.92-26.6L325.92-26.6Q328.92-26.6 331.54-25.03 334.17-23.45 335.77-20.48 337.37-17.5 337.37-13.25L337.37-13.25Q337.37-9.1 335.77-5.98 334.17-2.85 331.59-1.13 329.02 0.6 326.02 0.6L326.02 0.6Q323.72 0.6 321.72-0.33 319.72-1.25 318.42-2.45L318.42-2.45 318.42 11ZM325.12-3.4L325.12-3.4Q328.52-3.4 330.64-6.08 332.77-8.75 332.77-13.1L332.77-13.1Q332.77-16.1 331.69-18.25 330.62-20.4 328.84-21.55 327.07-22.7 324.92-22.7L324.92-22.7Q322.77-22.7 321.04-21.63 319.32-20.55 318.42-19.3L318.42-19.3 318.42-6.5Q319.72-5.15 321.42-4.28 323.12-3.4 325.12-3.4ZM351.52 0.6L351.52 0.6Q349.22 0.6 347.37-0.28 345.52-1.15 344.44-3.1 343.37-5.05 343.37-8.15L343.37-8.15 343.37-37 347.87-37 347.87-8.6Q347.87-5.9 348.99-4.6 350.12-3.3 352.12-3.3L352.12-3.3Q353.07-3.3 353.99-3.53 354.92-3.75 355.57-4.05L355.57-4.05 356.67-0.4Q355.77 0 354.44 0.3 353.12 0.6 351.52 0.6ZM370.56 0.6L370.56 0.6Q364.96 0.6 361.69-2.98 358.41-6.55 358.41-13L358.41-13Q358.41-16.9 359.89-19.98 361.36-23.05 364.01-24.83 366.66-26.6 370.16-26.6L370.16-26.6Q373.91-26.6 376.39-24.98 378.86-23.35 380.11-20.6 381.36-17.85 381.36-14.55L381.36-14.55Q381.36-12.8 381.21-11.15L381.21-11.15 363.01-11.15Q363.46-7.5 365.56-5.45 367.66-3.4 371.11-3.4L371.11-3.4Q373.36-3.4 375.16-3.88 376.96-4.35 378.61-5.1L378.61-5.1 379.66-1.25Q377.86-0.45 375.61 0.08 373.36 0.6 370.56 0.6ZM362.96-14.8L362.96-14.8 377.21-14.8Q377.21-18.6 375.31-20.65 373.41-22.7 370.06-22.7L370.06-22.7Q367.16-22.7 365.26-20.68 363.36-18.65 362.96-14.8Z" opacity="1" transform="matrix(1,0,0,1,0,0)" fill="#0074d9" class="slogan-text-1" data-fill-palette-color="secondary" id="text-1"></path></svg></g></svg></g></svg></g></svg></g><g><svg viewBox="0 0 161.50989327996933 139.05786744038284" height="139.05786744038284" width="161.50989327996933"><g><svg xmlns="http://www.w3.org/2000/svg" xmlns:xlink="http://www.w3.org/1999/xlink" version="1.1" x="8" y="0" viewBox="247.79800000000014 -638.9020759111104 56.26699999999997 53.77207591110994" style="enable-background:new 236.872 -649.342 78.128 74.65;" xml:space="preserve" height="139.05786744038284" width="145.50989327996933" class="icon-icon-0" data-fill-palette-color="accent" id="icon-0"><path d="M303.328-591.85c-0.43-0.187-1.044-0.54-1.368-0.782-0.322-0.241-0.651-0.702-0.731-1.024-0.081-0.32-0.303-0.498-0.489-0.394-0.187 0.111-0.341 0.111-0.341 0 0-0.104-0.155-0.215-0.341-0.241 0 0-0.055-0.275-0.121-0.611-0.069-0.336-0.43-0.632-0.808-0.66-0.375-0.025-0.924-0.135-1.22-0.241-0.294-0.109-0.537-0.415-0.537-0.685 0-0.268-0.241-0.512-0.537-0.537-0.296-0.026-0.558-0.292-0.586-0.586-0.025-0.297-0.222-0.671-0.44-0.829-0.213-0.164-0.653-0.493-0.975-0.734-0.322-0.243-0.762-0.57-0.975-0.734-0.217-0.16-0.546-0.556-0.736-0.877-0.187-0.324-0.581-0.565-0.878-0.539-0.296 0.028-0.757-0.151-1.023-0.401-0.271-0.243-0.491-0.635-0.491-0.868 0-0.229-0.093-0.572-0.209-0.759-0.116-0.187-0.136-0.47-0.042-0.632 0.093-0.162-0.019-0.391-0.253-0.509-0.232-0.114-0.422-0.208-0.422-0.208s0.019-0.438 0.044-0.973c0.021-0.532-0.018-1.653-0.086-2.485-0.07-0.836 0.31-2.221 0.845-3.079 0.532-0.857 1.253-2.074 1.602-2.7 0.347-0.623 0.803-1.422 1.012-1.771 0.209-0.345 0.378-0.632 0.378-0.632s-0.227-0.055-0.507-0.127c-0.275-0.067-0.769-0.181-1.097-0.25-0.322-0.07-0.797-0.033-1.053 0.083-0.253 0.114-0.521 0.4-0.59 0.632-0.069 0.232-0.278 0.382-0.463 0.338-0.187-0.046-0.528 0.049-0.762 0.209-0.229 0.165-0.686-0.065-1.01-0.505-0.326-0.444-0.648-1.125-0.715-1.519-0.072-0.394-0.088-0.848-0.044-1.01 0.046-0.164 0.065-0.579 0.044-0.929-0.025-0.349-0.232-0.804-0.465-1.01-0.232-0.209-0.424-0.509-0.424-0.674 0-0.164 0.134-0.449 0.296-0.634 0.164-0.187 0.352-0.641 0.422-1.012 0.07-0.37 0.356-0.864 0.634-1.098 0.276-0.231 0.562-0.836 0.63-1.348 0.07-0.51 0.243-1.211 0.38-1.556 0.139-0.352 0.29-0.752 0.34-0.889 0.044-0.139 0.026-0.537-0.044-0.884-0.069-0.35-0.127-0.767-0.127-0.928 0-0.164-0.151-0.525-0.336-0.803-0.187-0.278-0.34-0.505-0.34-0.505s0.248-0.171 0.549-0.38c0.303-0.209 0.702-0.551 0.885-0.759 0.187-0.211 0.319-0.701 0.296-1.097-0.023-0.394-0.04-0.715-0.04-0.715s-0.116-0.118-0.255-0.257c-0.137-0.139-0.442-0.386-0.676-0.546-0.229-0.165-0.704-0.371-1.053-0.465-0.347-0.093-0.783-0.514-0.965-0.933-0.183-0.419-0.334-0.764-0.334-0.764-0.081 0.296-0.41 0.428-0.73 0.296-0.324-0.135-0.85-0.268-1.172-0.296-0.322-0.025-0.783-0.114-1.024-0.192-0.243-0.083-0.639-0.282-0.88-0.442-0.241-0.162-0.417-0.516-0.391-0.782 0.026-0.268-0.171-0.599-0.44-0.732-0.268-0.134-0.796-0.092-1.171 0.099-0.378 0.187-0.882 0.648-1.123 1.024-0.243 0.375-0.639 1.056-0.88 1.512-0.241 0.459-0.461 1.139-0.488 1.516-0.028 0.375 0.106 0.834 0.292 1.024 0.188 0.187 0.584 0.363 0.88 0.389 0.294 0.028 0.667 0.206 0.829 0.393 0.162 0.188 0.03 0.627-0.294 0.977-0.32 0.347-0.475 0.919-0.34 1.271 0.134 0.347 0.398 0.986 0.586 1.414 0.187 0.431 0.077 0.979-0.246 1.222-0.32 0.243-0.782 0.438-1.023 0.438-0.243 0-0.486-0.283-0.539-0.634-0.053-0.347-0.317-0.766-0.583-0.929-0.273-0.16-0.535-0.488-0.588-0.729-0.055-0.245-0.055-0.662 0-0.931 0.053-0.268-0.211-0.662-0.586-0.878-0.378-0.215-1.102-0.28-1.614-0.146-0.51 0.134-1.169 0.333-1.463 0.44-0.297 0.107-0.713 0.128-0.928 0.049-0.215-0.083-0.456 0.185-0.539 0.584-0.079 0.403-0.41 0.713-0.73 0.683-0.324-0.025-0.762 0.019-0.977 0.102-0.215 0.077-0.785-0.032-1.271-0.248-0.481-0.215-0.944-0.63-1.024-0.926-0.081-0.297-0.387-0.845-0.685-1.223-0.294-0.373-0.491-1.32-0.438-2.096 0.055-0.782-0.146-1.285-0.438-1.125-0.297 0.162-0.604 0.116-0.685-0.097-0.081-0.213-0.54-0.389-1.026-0.389-0.482 0-0.944 0.195-1.024 0.438-0.081 0.239-0.232 0.616-0.341 0.831-0.107 0.213-0.107 0.565 0 0.78 0.109 0.213 0.195 0.674 0.195 1.028 0 0.347 0.109 0.873 0.243 1.169 0.134 0.297 0.069 0.778-0.146 1.074s-0.391 0.648-0.391 0.785c0 0.13-0.109 0.262-0.243 0.29-0.134 0.026-0.245 0.313-0.245 0.635 0 0.32-0.199 0.672-0.438 0.78-0.243 0.107-0.662 0.481-0.929 0.831-0.268 0.347-0.665 0.701-0.878 0.78-0.217 0.081-0.523 0.324-0.685 0.539-0.16 0.215-0.292 0.785-0.292 1.271 0 0.481-0.308 0.944-0.683 1.024-0.375 0.079-0.685 0.41-0.685 0.731 0 0.18-0.005 0.398-0.018 0.599l0.312-0.208 1.172-0.097 0.685-0.195-0.294 0.584-1.368 0.1-0.555 0.43c-0.018 0.259-0.032 0.613-0.032 0.889 0 0.347 0.197 0.789 0.44 0.977 0.241 0.188 0.373 0.604 0.292 0.928-0.083 0.32-0.278 0.826-0.438 1.121-0.162 0.297-0.491 0.539-0.734 0.539s-0.702-0.09-1.026-0.197c-0.195-0.067-0.361-0.22-0.454-0.408-0.06-0.118-0.093-0.245-0.081-0.371 0.026-0.322-0.018-0.852-0.099-1.176-0.081-0.319-0.301-0.845-0.486-1.169-0.19-0.32-0.697-0.785-1.127-1.024-0.43-0.243-0.537-0.725-0.245-1.076 0.296-0.349 0.56-0.898 0.586-1.218 0.028-0.324-0.255-0.764-0.634-0.979-0.165-0.095-0.35-0.18-0.574-0.257l-0.305 0.257-0.194 1.465 0.29 0.586-0.878 1.174-1.366 0.878-1.076 1.267 0.195 1.074 0.391 0.782-0.488 0.685-0.586 0.488 0.292 0.877 0.158 0.792c0.095 0.062 0.19 0.114 0.282 0.139 0.296 0.079 0.516 0.343 0.489 0.586-0.028 0.241 0.06 0.591 0.192 0.78 0.136 0.188 0.268 0.474 0.294 0.634 0.028 0.16-0.039 0.363-0.144 0.44-0.109 0.081-0.021 0.366 0.194 0.635 0.215 0.268 0.347 0.708 0.292 0.975-0.051 0.271-0.03 0.685 0.049 0.928 0.081 0.243 0.148 0.574 0.148 0.734 0 0.162 0.241 0.493 0.537 0.732 0.296 0.243 0.623 0.815 0.734 1.269 0.106 0.458 0.347 1.03 0.535 1.271 0.044 0.055 0.088 0.121 0.132 0.192 0 0-0.312 0.035-0.692 0.079-0.384 0.048-0.732 0.329-0.782 0.632-0.046 0.303-0.195 0.736-0.336 0.968-0.139 0.234-0.463 0.5-0.718 0.591-0.253 0.093-0.635-0.097-0.843-0.421-0.208-0.324-0.683-0.724-1.053-0.887-0.373-0.164-0.808-0.164-0.97 0-0.164 0.164-0.408 0.526-0.549 0.801-0.139 0.28-0.253 0.507-0.253 0.507s0.021 0.361 0.042 0.803c0.025 0.44 0.136 1.009 0.253 1.266 0.116 0.253 0.25 0.651 0.297 0.884 0.042 0.232 0.083 0.422 0.083 0.422s0.037 0.208 0.083 0.465c0.048 0.255 0.238 0.595 0.422 0.755 0.187 0.164 0.431 0.6 0.547 0.972 0.118 0.371 0.345 0.996 0.507 1.391 0.164 0.396 0.505 0.774 0.759 0.845 0.255 0.07 0.767 0.202 1.139 0.294 0.371 0.095 0.959-0.019 1.308-0.25 0.347-0.232 0.803-0.403 1.012-0.38 0.209 0.023 0.378 0.308 0.378 0.63 0 0.326 0.097 0.724 0.211 0.889 0.116 0.162 0.438 0.312 0.718 0.333 0.276 0.023 0.563 0.31 0.632 0.634 0.07 0.326 0.391 0.975 0.716 1.436 0.326 0.463 0.931 1.241 1.348 1.729 0.417 0.488 0.951 1.095 1.183 1.35 0.232 0.253 0.477 0.672 0.547 0.926 0.07 0.255 0.259 0.674 0.422 0.929 0.162 0.253 0.238 0.785 0.167 1.179-0.069 0.396-0.127 0.718-0.127 0.718s0.209-0.172 0.465-0.38c0.257-0.209 0.653-0.303 0.887-0.211 0.231 0.095 0.572 0.095 0.757 0 0.187-0.092 0.264-0.474 0.167-0.843-0.092-0.371-0.109-0.827-0.04-1.012 0.07-0.187 0.373-0.546 0.674-0.801 0.301-0.257 0.567-0.692 0.591-0.97 0.023-0.28-0.202-0.736-0.507-1.014-0.301-0.276-0.583-0.602-0.632-0.716-0.046-0.114 0.049-0.512 0.211-0.884 0.162-0.373 0.655-1.417 1.097-2.322 0.44-0.905 0.915-1.758 1.058-1.899 0.141-0.137 0.259-0.253 0.259-0.253 0.59-0.026 1.271 0.016 1.512 0.097 0.241 0.079 0.482-0.097 0.537-0.391 0.055-0.296 0.319-0.382 0.588-0.194 0.268 0.187 0.662 0.231 0.877 0.099 0.216-0.136 0.391-0.07 0.391 0.144 0 0.215 0.264 0.632 0.588 0.928 0.32 0.296 0.76 0.491 0.975 0.438 0.215-0.053 0.479-0.253 0.584-0.438 0.109-0.187 0.459-0.209 0.783-0.051 0.32 0.162 0.762 0.208 0.977 0.099 0.215-0.106 0.588-0.173 0.829-0.148 0.241 0.03 0.354-0.19 0.245-0.486-0.107-0.296-0.195-0.537-0.195-0.537s0.13-0.044 0.292-0.097c0.162-0.056 0.403 0.032 0.539 0.194 0.134 0.162 0.398 0.206 0.584 0.099 0.188-0.107 0.475-0.151 0.637-0.099 0.158 0.055 0.4 0.296 0.535 0.537 0.136 0.241 0.289 0.616 0.343 0.831 0.053 0.215 0.206 0.588 0.341 0.831 0.067 0.12 0.188 0.241 0.331 0.338 0.141 0.095 0.301 0.171 0.449 0.195 0.297 0.056 0.736-0.009 0.979-0.143 0.241-0.137 0.591-0.18 0.778-0.099 0.188 0.081 0.607 0.299 0.929 0.489 0.322 0.188 1.047 0.581 1.612 0.88 0.562 0.292 1.201 0.491 1.415 0.437 0.215-0.053 0.523 0.187 0.683 0.539 0.162 0.349 0.711 0.831 1.222 1.072 0.51 0.243 1.301 0.331 1.757 0.197 0.456-0.137 1.074-0.507 1.368-0.831 0.296-0.322 0.671-0.762 0.831-0.977 0.081-0.107 0.127-0.248 0.134-0.391 0 0 0.19 0.053 0.421 0.116 0.232 0.067 0.535 0.216 0.674 0.334 0.141 0.114 0.327 0.417 0.421 0.672 0.095 0.253 0.341 0.5 0.549 0.546 0.21 0.048 0.664 0.18 1.012 0.297 0.349 0.116 0.632 0.209 0.632 0.209s0.268-0.019 0.591-0.042c0.324-0.025 0.801-0.097 1.054-0.167 0.255-0.07 0.634-0.261 0.843-0.424 0.209-0.16 0.627-0.331 0.928-0.378 0.301-0.048 0.813-0.028 1.139 0.042 0.324 0.069 0.76 0.315 0.972 0.547 0.208 0.234 0.701 0.329 1.093 0.213 0.396-0.118 0.718-0.213 0.718-0.213s0.19-0.018 0.422-0.04c0.231-0.023 0.496-0.137 0.59-0.253 0.093-0.116 0.357-0.232 0.591-0.253 0.231-0.025 0.671 0.062 0.977 0.187 0.305 0.125 0.556 0.231 0.556 0.231C303.97-591.457 303.673-591.699 303.328-591.85" fill="#0074d9" data-fill-palette-color="accent"></path></svg></g></svg></g></svg></g><defs></defs></svg><rect width="395.52" height="93.33837958709108" fill="none" stroke="none" visibility="hidden"></rect></g></svg></g></svg>